<svg width="512" height="512" viewBox="70 70 372 372" fill="none" xmlns="http://www.w3.org/2000/svg">
  <rect x="78" y="78" width="356" height="356" rx="88" fill="#FCFCFF"/>
  <path d="M96 186L244 118C254 114 266 114 276 118L408 178C426 186 428 210 412 221L279 309C267 317 251 317 239 309L94 208C78 199 79 177 96 186Z" fill="#8DBFE4" stroke="#40457D" stroke-width="12"/>
  <path d="M161 212C161 179 188 152 221 152H291C324 152 351 179 351 212V316C351 372 307 418 251 418H261C205 418 161 372 161 316V212Z" fill="#AEE8C3" stroke="#40457D" stroke-width="12"/>
  <path d="M198 194H314C330 194 343 207 343 223V252H169V223C169 207 182 194 198 194Z" fill="#8DCBE0"/>
  <path d="M214 184V248" stroke="#FFE18A" stroke-width="14" stroke-linecap="round"/>
  <circle cx="210" cy="298" r="32" fill="#40457D"/>
  <circle cx="302" cy="298" r="32" fill="#40457D"/>
  <circle cx="198" cy="290" r="11" fill="#FCFCFF"/>
  <circle cx="291" cy="290" r="11" fill="#FCFCFF"/>
  <circle cx="224" cy="314" r="6" fill="#FCFCFF"/>
  <path d="M236 339C244 350 268 350 276 339" stroke="#40457D" stroke-width="10" stroke-linecap="round"/>
  <ellipse cx="182" cy="340" rx="16" ry="10" fill="#FFB985"/>
  <ellipse cx="330" cy="340" rx="16" ry="10" fill="#FFB985"/>
  <path d="M360 304H398L372 350H400L353 419L366 367H332L360 304Z" fill="#FFD88C" stroke="#40457D" stroke-width="12" stroke-linejoin="round"/>
</svg>
